<?xml version="1.0" encoding="UTF-8"?>
<svg xmlns="http://www.w3.org/2000/svg" version="1.1" viewBox="0 0 385.91 323.08">
  <defs>
    <style>
      .cls-1 {
        stroke: #000;
        stroke-miterlimit: 10;
      }
    </style>
  </defs>
  <!-- Generator: Adobe Illustrator 28.7.2, SVG Export Plug-In . SVG Version: 1.2.0 Build 154)  -->
  <g>
    <g id="Layer_1">
      <g>
        <path class="cls-1" d="M264.31,122.53c-.91-.02-1.18.69-1.5,1.23-4.61,7.69-10.65,14.17-17.32,20.08-1.72,1.52-2.86,3.22-3.11,5.54-.82,7.78-2.76,15.32-5.48,22.62-1.1,2.94-.32,4.68,1.92,6.69,24.55,22.01,45.26,47.27,62.99,75.02,4.42,6.91,8.37,14.08,11.13,21.85,1.81,5.1,2.58,10.26,1.51,15.68-1.7,8.6-6.57,13.32-15.11,15.04-6.31,1.27-11-1.13-14.72-5.81-2.59-3.27-4.88-3.59-8.6-1.44-9.13,5.27-18.5,3.73-26.98-4.16-2.46-2.28-4.25-2.79-7.43-1.1-9.18,4.9-17.63,1.7-24.37-4.66-5.21-4.93-9.27-8.69-17.46-6.5-5.87,1.57-11.06-2.88-14.83-7.78-5.29-6.89-7.67-14.99-9.65-23.26-1.27-5.34-1.29-5.33-6.03-3.03-19.72,9.58-40.66,15-62.29,17.94-2.99.41-4.56,1.78-5.83,4.31-5.57,11.11-11.27,22.15-19.05,31.94-1.27,1.6-2.62,3.15-4.07,4.59-4.51,4.49-9.65,7.21-16.23,5.11-6.61-2.11-10.76-6.81-11.7-13.47-.68-4.86-2.51-6.22-7.27-6.21-9.46.02-16.09-7.17-15.57-16.78.23-4.15-.55-5.63-5.01-6-12.71-1.05-19.35-15.82-12.62-27.41,3.36-5.78,8.73-9.31,14.34-12.49,10.16-5.76,21.15-9.52,32.36-12.57,3.35-.91,5.35-2.58,6.64-5.84,5.82-14.68,13.75-28.18,23.28-40.77,3.17-4.19,3.01-4.6-2.3-5.77-6.82-1.5-13.52-3.33-19.76-6.55-4.05-2.09-7.71-4.66-10.36-8.47-3.23-4.64-4.53-9.76-2.53-15.13,1.3-3.48.38-5.35-2.43-7.51-5.78-4.45-9.7-10.27-11-17.65-.71-4.06-.39-8.06,1.76-11.48,1.97-3.12,1.13-5.02-1.16-7.41-4.59-4.78-7.35-10.43-7.01-17.32.17-3.51.87-6.93,2.9-9.68,2.87-3.89,1.19-6.13-1.76-8.89-7.85-7.35-7.46-19.07.73-25.63,5.22-4.18,11.43-5,17.85-4.04,6.99,1.04,13.36,3.96,19.38,7.48,33.15,19.36,62.52,43.34,87.64,72.44.53.62,1.03,1.27,1.53,1.92,6.16,8.01,7.42,8.29,16.99,4.59,2.26-.87,2.94-2.67,3.68-4.58,3.27-8.43,7.4-16.37,12.4-23.93,17.73-26.83,46.04-21.11,63-8.63,6.23,4.59,12.76,2.2,19.23,2.24.67,0,1.42-1.16,2-1.89.76-.96,1.23-2.17,2.07-3.04,5.66-5.91,7.39-11.53,3.5-20-3.92-8.53-1.19-17.67,5.38-25.06,2.19-2.46,3.89-2.48,5.81.24,3.73,5.29,5.79,11.06,5.81,17.58.02,5.78.17,5.8,5.3,2.81,2.59-1.51,5.17-3.12,7.94-4.23,3.19-1.28,3.76-3.1,3.07-6.36-2.56-12.09,1.76-21.71,11.38-29.05,3.71-2.83,5.05-2.41,6.24,2.17,1.96,7.53,2.07,15.09-.91,22.48-.38.95-1.43,2.04-.6,3,.82.94,2.06.09,3.09-.08,3.14-.51,5.9-1.89,8.64-3.52,10.07-5.98,22.88-5.23,32,1.7,4.77,3.63,4.76,5.03-.04,8.44-7.8,5.55-16.49,6.91-25.74,5.39-2.72-.45-5.39-.84-8.12-.27-1.05.22-2.41.24-2.75,1.41-.4,1.38,1.08,1.74,1.93,2.28,6.08,3.87,10.49,9.1,12.9,15.92,1.51,4.26.75,5.39-3.87,5.61-11.82.56-20.69-4.36-26.01-14.91-1.77-3.5-3.5-3.9-6.63-2.17-3.7,2.06-7.47,3.99-10.85,6.56-1.04.79-2.75,1.34-2.53,2.9.2,1.42,1.94,1.29,3.03,1.69,8.68,3.22,14.81,9.09,18.32,17.62,2.05,4.99,1.14,6.45-4.31,6.63-10.95.37-19.33-4.27-24.69-13.79-1.98-3.52-3.15-2.89-4.99-.17-1.47,2.18-2.85,4.29-2.72,7.1.07,1.52-.49,3.07-1.57,4.13-7.3,7.1-7.66,16.61-8.84,25.73-1.87,14.52.1,28.85,2.87,43.1.26,1.34.58,2.67.78,4.02.58,3.92-1.33,7.01-4.81,7.87-3.37.83-6.69-1.18-7.67-5.06-1.68-6.62-2.7-13.37-3.58-20.14-.74-5.7-.92-11.42-.97-17.15-.01-1.3.41-2.72-.59-3.88ZM171.74,226.43c0-2.87-.25-4.95.06-6.95.52-3.44,2.76-5.31,6.25-5.22,3.29.09,5.34,1.95,5.81,5.24.43,2.96.66,5.95.98,8.93,1.14,10.87,2.48,21.71,6.66,31.94,1.25,3.05,2.77,5.96,5.36,8.13,1.6,1.34,3.42,1.78,5.3.67,1.83-1.07,1.29-2.78.98-4.4-1.08-5.5-2.04-11.03-1.78-16.65.18-3.91,3.11-6.64,6.51-6.59,3.28.05,5.84,2.59,6.31,6.37.15,1.21.09,2.45.15,3.68.3,6.76,1.72,13.26,4.7,19.36,2.46,5.04,5.83,9.24,11.3,11.29,1.98.74,4.12,1.22,5.75-.51,1.81-1.92-.03-3.55-.92-5.11-3.99-7-7.69-14.16-10.97-21.52-1.92-4.3-.79-7.98,2.58-9.53,3.45-1.59,6.86-.1,8.98,4.06,2.18,4.25,4.15,8.61,6.4,12.82,4.31,8.07,8.71,16.1,15.36,22.6,1.99,1.94,4.16,3.62,7,3.96,2.73.33,5.37-.47,6.97-2.64,1.62-2.2-.85-3.7-1.89-5.28-5.38-8.23-10.93-16.34-16.28-24.58-2.98-4.6-2.56-8.15.85-10.43,3.34-2.22,6.95-.99,9.9,3.39,1.3,1.93,2.54,3.88,3.82,5.82,7.65,11.64,15.34,23.25,24.12,34.08,1.64,2.02,3.09,4.98,6.53,3.68,3.54-1.34,3.37-4.58,3.37-7.62,0-2.51-.74-4.87-1.74-7.11-1.61-3.61-3.23-7.24-5.18-10.68-11.18-19.68-24.8-37.62-40.03-54.27-13.69-14.95-26.8-30.72-46.36-38.8-3.17-1.31-3.96-4.48-2.8-7.69,1.11-3.05,3.59-4.46,6.81-4.02,3.13.43,6.05,1.7,8.79,3.25,2.45,1.39,3.73.63,4.53-1.91,1.97-6.27,3.6-12.62,3.88-19.2.15-3.54,1.42-6.2,4.18-8.45,3.27-2.68,6.46-5.5,9.34-8.57,5.46-5.81,10.78-12.03,12.07-20.08.93-5.81,3.25-10.23,7.58-13.89.79-.67,2.05-1.47,1.6-2.62-.56-1.41-2.18-.95-3.3-.85-5.12.46-8.88-1.42-12.72-4.99-13.49-12.57-33.37-10.52-44.34,4.16-6.12,8.18-10.25,17.39-13.43,27.02-1.25,3.77-3.53,5.9-7.37,6.8-6.38,1.48-12.72,3.15-19.05,4.83-3.93,1.04-6.72-.41-8.53-3.8-2.33-4.37-5.25-8.31-8.44-12.05-16.13-18.91-34.81-35.02-54.69-49.8-11.51-8.56-23.31-16.7-36.56-22.46-3.16-1.37-6.39-2.38-9.91-2.14-2.57.18-4.91.7-5.92,3.48-.97,2.67.99,4.01,2.56,5.49.69.65,1.47,1.23,2.22,1.82,12.56,9.91,25.98,18.57,39.31,27.36,3.94,2.59,5.03,6.15,3.12,9.36-2.07,3.47-5.65,4.04-9.99,1.49-2-1.18-3.93-2.46-5.86-3.76-6.91-4.64-13.87-9.22-20.69-14.01-2.75-1.93-4.33-1.44-5.7,1.49-2,4.26-.49,7.69,2.32,10.84,5.27,5.91,11.99,9.89,18.79,13.67,5.96,3.31,12.19,6.13,18.21,9.35,3.56,1.91,4.74,5.48,3.23,8.64-1.41,2.96-4.74,4.15-8.44,2.94-1.03-.34-2.04-.8-3-1.3-6.55-3.38-13.08-6.79-19.64-10.16-1.6-.82-3.21-2.71-5.11-.83-1.69,1.68-1.19,3.8-.43,5.77,2.23,5.72,6.7,9.16,12.07,11.62,6.69,3.06,13.76,4.27,21.08,4.42,4.6.09,7.51,2.74,7.54,6.42.03,3.79-3.19,6.56-7.87,6.51-4.92-.06-9.79-.77-14.62-1.68-1.96-.37-4.2-1.4-5.37,1.21-1.13,2.53.19,4.5,2.06,6.11,3.6,3.1,7.96,4.72,12.42,6.07,7.74,2.33,15.66,3.66,23.72,4.3,3.04.24,5.55,1.52,6.69,4.59,1.03,2.77.02,5.07-1.88,7.1-15.32,16.37-26.74,35.13-34.52,56.13-1.08,2.9-3.03,4.78-6.07,5.54-2.12.53-4.23,1.11-6.32,1.72-10.37,3.02-20.64,6.32-30.07,11.71-3.19,1.82-6.44,3.67-8.62,6.79-1.64,2.33-1.8,4.91-.32,7.32,1.39,2.26,3.72,1.89,5.91,1.52,4.92-.82,9.37-2.89,13.72-5.2,1.08-.57,2.12-1.25,3.25-1.74,3.35-1.44,6.23-.69,8.26,2.31,1.96,2.9,1.43,5.73-1,8.15-2.13,2.11-4.42,4.07-6.53,6.19-2.05,2.06-3.54,4.51-4.29,7.35-1.08,4.1,1.02,6.43,5.2,5.68,3.61-.65,6.61-2.58,9.2-5.06,1.96-1.88,3.64-4.06,5.5-6.05,3.04-3.27,6.9-3.79,9.82-1.38,2.91,2.41,3.05,6.32.32,9.86-1.33,1.73-2.81,3.35-4.08,5.13-2.51,3.52-4.17,7.4-4.08,11.79.05,2.19.45,4.59,2.86,5.47,2.22.81,3.47-1.16,4.72-2.52,3.06-3.32,5.66-7,8.03-10.85,5.01-8.15,9.66-16.5,13.56-25.23,1.92-4.3,4.75-6.37,9.6-6.89,22.56-2.44,44.24-8.12,64.7-18.22,4.55-2.25,7.7-4.69,5.96-9.47Z"/>
        <path class="cls-1" d="M244.44,96.83c-.13-4.22-4.18-8.03-8.34-7.83-4.06.19-7.74,4.01-7.74,8.03,0,4.21,3.94,8.11,8.13,8.04,4.2-.06,8.07-4.08,7.94-8.24Z"/>
        <path class="cls-1" d="M244.44,96.83c.13,4.16-3.75,8.18-7.94,8.24-4.19.06-8.13-3.83-8.13-8.04,0-4.02,3.68-7.84,7.74-8.03,4.16-.19,8.21,3.61,8.34,7.83Z"/>
      </g>
    </g>
  </g>
</svg>