<?xml version="1.0" encoding="UTF-8"?>
<svg xmlns="http://www.w3.org/2000/svg" version="1.1" viewBox="0 0 231.28 374.89">
  <defs>
    <style>
      .cls-1 {
        fill: #fff;
      }
    </style>
  </defs>
  <!-- Generator: Adobe Illustrator 28.7.2, SVG Export Plug-In . SVG Version: 1.2.0 Build 154)  -->
  <g>
    <g id="Layer_1">
      <g>
        <path d="M60.59,189.73c-14.56,3.03-25.38-3.1-33.92-13.22-16.66-19.74-22.4-42.81-18.54-68.22,1.35-8.87,6.18-16.18,11.83-23,.91-1.09,1.56-3.39,1.03-4.52-4.44-9.52-3.73-19.03-.36-28.54C29.46,27.3,60.22,6.11,86.67,6.61c10.68.2,19.26,4.21,24.97,13.55.46.76,1.04,1.45.9,1.26,7.49-3.44,14.33-7.76,21.79-9.75,14.38-3.83,27.74.68,38.99,9.49,25.27,19.78,43.06,45,49.97,76.67,5.17,23.68-2.88,43.26-21.96,58.16-2.14,1.67-2.79,3.16-2.79,5.9.04,12.37-6.09,22.17-14.24,30.73-15.2,15.96-34.46,23.66-55.92,26.59-1.19.16-2.4.22-3.59.38-1.64.22-3.26.49-5.43.82,0,1.76,0,3.53,0,5.29-.03,45.78-.06,91.56-.1,137.34,0,1.2.04,2.41-.03,3.61-.18,3.21-1.98,5.17-5.11,5.16-3.2,0-4.87-2.11-4.89-5.31-.04-7.23-.02-14.46-.01-21.68.04-39.91.08-79.81.11-119.72,0-1.47-.14-2.93-.21-4.31-6.86-.9-13.56-1.08-19.84-2.79-6.28-1.71-12.54-4.28-18.07-7.68-7.09-4.36-9.96-11.77-10.61-20.58ZM111.15,211.42c11.22-2.02,22.23-3.09,32.69-6.08,17.75-5.06,32.74-14.65,41.39-31.72,1.98-3.91,3.05-9.05,2.44-13.33-.92-6.5-1.7-6.39,4.04-9.93,17.33-10.68,25.72-29.93,21.87-50.05-3.97-20.76-15.2-37.75-28.1-53.81-7.6-9.46-16.33-17.72-27.7-22.62-16.96-7.31-32.21-2.37-41.96,13.25-.95,1.53-3.97,3.15-5.34,2.69-1.72-.58-3.65-3.16-3.87-5.07-1.17-9.95-8.87-17.49-18.88-17.94-9.47-.42-18.16,2.5-26.39,6.66-14.09,7.12-25.64,17.03-31.09,32.39-3.19,8.99-4.24,17.9,4.44,25.17,3.03,2.54,1.59,6.76-2.21,8.22-1.36.52-2.99.93-3.9,1.93-5.04,5.5-9.34,11.58-10.47,19.12-3.12,20.74,1.58,39.75,13.82,56.73,2.5,3.47,5.94,6.43,9.41,8.99,8.14,5.99,14.54,5.93,22.73.16,2.32-1.64,4.47-2.49,6.96-.65,2.5,1.84,2.27,4.16,1.42,6.85-3.56,11.21-.35,19.37,10.7,23.08,8.99,3.02,18.65,4.06,28,5.97Z"/>
        <path d="M125.54,325.25c1.54-20.69,2.78-41.41,4.74-62.06.9-9.57,4.75-18.05,13.94-22.92,7.53-3.99,15.37-2.92,19.96,4.17,3.51,5.42,4.13,12.91,8.1,17.79,4.36,5.34,7.76,10.58,8.83,17.27,1.41,8.86,1.3,17.68-1.37,26.34-.48,1.57-1.15,3.11-1.91,4.57-2.05,3.92-4.9,7.12-9.63,7.14-4.95.02-8.19-3.22-9.83-7.46-5.79-14.98-6.44-29.82,2.21-44.15.51-.84,1.21-2.06.95-2.79-1.45-4.08-2.88-8.21-4.89-12.03-1.64-3.1-4.46-3.62-7.72-1.84-4.83,2.63-7.18,7.04-7.85,12.02-1.53,11.31-3.2,22.68-3.53,34.06-.64,22.26-.4,44.55-.52,66.83,0,1.2.43,2.72-.13,3.55-1.3,1.91-2.83,4.49-4.73,4.99-3.06.79-5.03-1.75-5.3-4.76-.32-3.59-.17-7.22-.17-10.83-.01-9.94,0-19.87,0-29.81-.38-.03-.75-.05-1.13-.08ZM168.43,306.58c4.08-9.33,4.19-18.16,2.25-27.06h-4.9c-2.57,8.74-1.6,20.22,2.65,27.06Z"/>
        <path class="cls-1" d="M112.72,164.34c22.27.22,40.57-17.76,40.86-40.16.29-22.1-18.03-40.87-40.08-41.06-22.42-.2-40.91,17.68-41.2,39.83-.3,23.02,17.42,41.16,40.42,41.39Z"/>
        <path d="M112.72,164.34c-23.01-.23-40.72-18.37-40.42-41.39.29-22.15,18.78-40.03,41.2-39.83,22.05.19,40.37,18.96,40.08,41.06-.29,22.4-18.59,40.38-40.86,40.16ZM112.66,93.45c-16.73.06-30.42,13.82-30.34,30.47.08,16.89,13.89,30.41,30.96,30.33,16.54-.09,30.34-14.17,30.14-30.75-.2-16.79-13.84-30.11-30.77-30.05Z"/>
        <path class="cls-1" d="M132.19,123.85c0-11.03-8.39-19.4-19.41-19.37-10.82.03-19.62,8.86-19.44,19.51.17,10.66,9.11,19.35,19.82,19.28,10.48-.07,19.04-8.8,19.03-19.42Z"/>
        <path d="M132.19,123.85c0,10.62-8.55,19.36-19.03,19.42-10.71.07-19.65-8.63-19.82-19.28-.17-10.65,8.63-19.48,19.44-19.51,11.02-.03,19.41,8.34,19.41,19.37Z"/>
      </g>
    </g>
  </g>
</svg>