<?xml version="1.0" encoding="UTF-8"?>
<svg xmlns="http://www.w3.org/2000/svg" version="1.1" viewBox="0 0 370.28 549.89">
  <defs>
    <style>
      .cls-1 {
        fill: #fff;
      }
    </style>
  </defs>
  <!-- Generator: Adobe Illustrator 28.7.2, SVG Export Plug-In . SVG Version: 1.2.0 Build 154)  -->
  <g>
    <g id="Layer_1">
      <g>
        <path d="M26.92,210.41c-2.42-.11-4.13-.19-5.85-.26-9.34-.41-15.63-6.13-15.85-15.36-.32-13.42-.26-26.86-.04-40.28.13-7.47,4.46-12.9,11.64-14.94,53.6-15.18,90.36-50.34,116.22-98.22,8.77-16.24,21.31-27.03,39.55-30.89,25.36-5.36,49.95,6.59,62.23,29.87,17.64,33.44,41.49,61.31,74.12,81.06,12.6,7.62,26.02,13.44,40.23,17.36,10.27,2.83,14.19,8.02,14.2,18.83.01,11.37-.28,22.76.09,34.12.33,10.03-5.58,19.38-18.17,18.51-1.06-.07-2.14.19-3.73.35v6.2c0,104.27,0,208.53,0,312.8,0,1.58.09,3.17-.05,4.74-.5,5.51-3.71,8.51-9.28,8.69-2.21.07-4.42,0-6.63,0-94.79,0-189.57,0-284.36,0-12.44,0-14.33-1.86-14.33-14.14,0-103.95,0-207.9,0-311.85v-6.59ZM45.18,437.53c2.41,0,4.29,0,6.18,0,43.13,0,86.25,0,129.38.01,1.73,0,3.5-.03,5.18.32,4.92,1.02,7.51,4.61,7.12,9.61-.4,5.22-3.94,8.08-10.21,8.08-43.91.02-87.83,0-131.74,0-1.85,0-3.7,0-5.73,0v21.07h277.91v-21.07c-1.98,0-3.67,0-5.36,0-21.01,0-42.02,0-63.03,0-10.43,0-20.85.06-31.28-.03-5.56-.05-9.06-3.47-9.21-8.65-.15-5.14,3.21-8.76,8.69-9.29,1.25-.12,2.53-.03,3.79-.03,30.33,0,60.66,0,90.99,0,1.81,0,3.62,0,5.46,0v-226.97H45.18v226.96ZM23.15,191.79h322.21c0-7.39.04-14.32-.02-21.25-.04-4.56,1.34-10.15-.8-13.36-1.95-2.93-7.78-3.28-11.9-4.75-33.39-11.88-60.94-32.07-83.64-59.04-2.98-3.54-5.89-5.19-10.7-5.17-36.65.22-73.3.16-109.95.06-3.12,0-5.13,1-7.27,3.27-8.45,8.94-16.71,18.14-25.91,26.27-20,17.68-43.12,30.01-68.68,37.8-1.35.41-3.16,2.29-3.19,3.52-.25,10.72-.15,21.45-.15,32.65ZM45.17,524.86h277.98v-29.57H45.17v29.57ZM136.83,70.09h94.08c-5.05-8.87-9.48-17.53-14.74-25.67-13.19-20.43-42.51-23.7-58.84-5.66-8.07,8.91-13.42,20.28-20.51,31.32Z"/>
        <path class="cls-1" d="M184.38,229.31c-51.3-.21-93.4,41.54-94.25,92.25-.84,50.35,39.13,95.46,93.51,95.92,51.34.43,93.85-41.61,94.74-91.88.93-52.62-41.34-96.45-94-96.3Z"/>
        <path d="M184.38,229.31c52.66-.16,94.94,43.67,94,96.3-.89,50.26-43.4,92.31-94.74,91.88-54.38-.45-94.36-45.57-93.51-95.92.85-50.71,42.95-92.46,94.25-92.25ZM109.06,332.28c3.09,37.71,38.52,65.65,66.31,65.8,0-4.08-.05-8.17.01-12.25.09-6.19,3.51-10.05,8.83-10.07,5.35-.02,8.8,3.82,8.89,10,.06,4.19.01,8.38.01,12.61,35.89-2.23,65.22-36.51,66.01-66.09-3.93,0-7.86.01-11.78,0-6.82-.02-10.53-3.03-10.69-8.67-.17-5.59,4-9.26,10.68-9.33,4.05-.05,8.11,0,12.21,0-3.63-36.41-35.71-64.03-66.42-66.04,0,4.4.09,8.77-.02,13.14-.15,6.15-3.28,9.43-8.81,9.45-5.58.01-8.76-3.25-8.9-9.35-.11-4.38-.02-8.77-.02-13.19-33.97,2.11-64.5,34.14-66.1,65.99,4.41,0,8.82-.15,13.21.04,5.68.24,9.49,4.11,9.37,9.2-.13,5.38-3.73,8.7-9.65,8.77-4.37.05-8.73.01-13.14.01Z"/>
        <path d="M184.25,108.26c12.93,0,25.86-.03,38.79,0,6.45.02,9.92,3.09,10.03,8.71.11,5.4-3.57,9.08-9.79,9.1-26.02.11-52.04.11-78.06.02-6.19-.02-9.87-3.69-9.82-9.13.05-5.47,3.68-8.67,10.06-8.69,12.93-.04,25.86-.01,38.79-.02Z"/>
        <path d="M108.94,170.58c-.6,2.38-.75,5.01-1.89,7.1-2.78,5.07-10.14,5.61-14.12,1.32-4.23-4.58-3.56-15.34,1.67-18.08,2.44-1.28,6.22-1.47,8.85-.56,4.36,1.51,5.54,5.63,5.49,10.22Z"/>
        <path d="M259.75,170.51c-.79-7.46,4.78-11.95,10.76-11.07,4.36.64,7.28,4.16,7.57,9.38.41,7.29-1.97,11.72-6.88,12.79-4.58.99-8.83-.97-10.41-5.15-.7-1.85-.71-3.95-1.03-5.94Z"/>
        <path d="M132.98,170.13c-.44-3.65.44-7.29,4.34-9.62,4.82-2.87,11.19-.89,12.75,4.47.89,3.04.97,6.54.51,9.7-.71,4.88-4.68,7.5-9.53,7.09-4.72-.4-7.86-3.79-8.07-8.74-.03-.78,0-1.57,0-2.9Z"/>
        <path d="M235.52,170.89c-.01,7.65-3.68,11.57-10.17,10.86-6-.66-9.22-6.84-7.69-14.76,1.1-5.7,6.03-8.82,11.56-7.33,4.34,1.17,6.3,4.67,6.29,11.24Z"/>
        <path d="M193.13,170.81c-.03,7.6-3.35,11.42-9.57,10.99-4.54-.31-7.58-3.14-8.05-7.68-.19-1.87-.19-3.77-.11-5.66.23-5.95,3.48-9.15,9.09-9.06,5.36.09,8.36,3.22,8.64,9.04.04.78,0,1.57.01,2.36Z"/>
        <path d="M66.06,170.37c.02,8.39-3.62,12.29-10.55,11.29-.62-.09-1.26-.16-1.85-.38-4.84-1.78-7.09-9.16-4.95-16.13,1.3-4.25,5.64-6.53,10.61-5.6,4.65.87,6.72,4.19,6.74,10.82Z"/>
        <path d="M302.46,170.74c-.04-7.42,2.32-10.86,7.75-11.31,5.93-.49,9.6,2.64,9.99,8.61.11,1.72.11,3.47-.02,5.19-.41,5.63-3.68,8.64-9.16,8.53-5.17-.11-8.21-3.18-8.55-8.65-.05-.78,0-1.57,0-2.36Z"/>
        <path class="cls-1" d="M175.4,309.57h-.04c0,3.63.22,7.28-.05,10.89-.36,4.8,1.38,8.36,4.84,11.69,9.54,9.2,18.79,18.71,28.2,28.04,4.37,4.34,10.19,4.68,13.84.96,3.79-3.86,3.36-9.2-1.23-13.81-8.35-8.39-16.83-16.65-25.01-25.2-1.53-1.6-2.56-4.27-2.68-6.51-.36-6.61-.06-13.25-.21-19.88-.12-5.37-3.9-9.09-8.86-9.07-4.95.03-8.63,3.77-8.78,9.15-.13,4.57-.03,9.15-.03,13.73Z"/>
        <path d="M175.4,309.57c0-4.58-.1-9.16.03-13.73.15-5.39,3.83-9.13,8.78-9.15,4.96-.03,8.74,3.7,8.86,9.07.15,6.63-.16,13.27.21,19.88.12,2.24,1.15,4.91,2.68,6.51,8.18,8.55,16.67,16.81,25.01,25.2,4.58,4.61,5.02,9.95,1.23,13.81-3.65,3.72-9.47,3.37-13.84-.96-9.41-9.33-18.66-18.84-28.2-28.04-3.45-3.33-5.2-6.89-4.84-11.69.27-3.61.05-7.26.05-10.89h.04Z"/>
      </g>
    </g>
  </g>
</svg>