<?xml version="1.0" encoding="UTF-8"?>
<svg xmlns="http://www.w3.org/2000/svg" version="1.1" viewBox="0 0 554.42 294.49">
  <defs>
    <style>
      .cls-1 {
        fill: none;
        stroke: #000;
        stroke-miterlimit: 10;
        stroke-width: 10px;
      }
    </style>
  </defs>
  <!-- Generator: Adobe Illustrator 28.7.2, SVG Export Plug-In . SVG Version: 1.2.0 Build 154)  -->
  <g>
    <g id="Layer_1">
      <path class="cls-1" d="M21.89,280.21S175.35,32.58,185.3,16.52c.6.95,1.01,1.61,1.01,1.61l165.96,263.23"/>
      <path class="cls-1" d="M300.19,193.4l78.64-97.53,1.28-1.59c.63.8,1.27,1.59,1.27,1.59l142.47,178.72"/>
      <path class="cls-1" d="M94.4,164.3l67.4-27.06.72-.29s.06.08.06.08c0,0,30.45,38.73,41.2,52.4,1.12-4.19,10.56-39.33,13.69-51,1.54.52,2.54.85,2.54.85l55.15,18.38"/>
      <line class="cls-1" x1="4.53" y1="282.77" x2="175.09" y2="282.77"/>
      <line class="cls-1" x1="405.38" y1="283.85" x2="224.62" y2="283.85"/>
      <line class="cls-1" x1="547.09" y1="276.04" x2="464.62" y2="276.04"/>
      <path class="cls-1" d="M324.7,162.77s30.5-5.75,34.74-6.55c.37,1.63,5.75,25.14,7.56,33.07,2.73-3.48,17.74-22.65,22.27-28.44.17.25.27.39.27.39,0,0,18.75,26.19,25.04,34.96.15-2.51,1.33-21.65,1.82-29.54,6.39.88,23.7,3.26,23.7,3.26"/>
    </g>
  </g>
</svg>