<?xml version="1.0" encoding="UTF-8"?>
<svg xmlns="http://www.w3.org/2000/svg" version="1.1" viewBox="0 0 515.62 275.08">
  <defs>
    <style>
      .cls-1 {
        stroke-width: 5.42px;
      }

      .cls-1, .cls-2 {
        fill: none;
        stroke: #000;
        stroke-miterlimit: 10;
      }

      .cls-2 {
        stroke-width: 6.47px;
      }
    </style>
  </defs>
  <!-- Generator: Adobe Illustrator 28.7.2, SVG Export Plug-In . SVG Version: 1.2.0 Build 154)  -->
  <g>
    <g id="Layer_1">
      <g>
        <path class="cls-1" d="M203.89,168.34c3.41-18.99-7.13-36.74-23.55-39.68"/>
        <path class="cls-1" d="M204.13,166.22c0,25.72-27.38,46.53-61.21,46.53"/>
        <path class="cls-1" d="M145.64,212.64c-50.5.69-92.27-26.96-97.15-62.96,0-28.45.43-51.83.98-55.09,19.04,4.92,134.74,34.78,134.74,34.78"/>
        <path class="cls-1" d="M47.12,139.91l-38.49-8.52c-.72,74.71,60.13,135.38,135.44,135.38"/>
        <path class="cls-1" d="M239.2,232.15c0,19.14-44.23,34.62-98.88,34.62"/>
        <path class="cls-1" d="M239.15,233.16c0-9.56,8.82-16.33,11.63-24.1,4.87-13.42,4.66-26.59,2.49-39.05-4.97-28.53-27.88-43.95-41.31-56.51-.36-.43-.6-.73-.6-.73l-27.66-26.78c-.88-.85-1.64-1.82-2.26-2.87l-13.28-22.6s-.05-.08-.13-.22c-6.14-13.83,7.74-19.49,19.21-20.34,1.01-.08,2.04,0,3.02.27,7.84,2.16,10.83,19.11,9.61,26.04-.18,1.04-.11,2.1-.2,3.15-.73,8.06,4.18,10.07,6.32,14.37.23.47-.71-.73-.43-.28,5.26,8.49.91,4.4,6.09,8.51,7.95,6.3,22.44,13.57,22.44,13.57l1.11.79c-.19-.58-.37-1.16-.37-1.16,0,0-4.41-13.8-6.23-19.52,15.56-15.72,11.71-62.56-24.98-74.01-40.99-9.87-57.13,13.44-62.78,30.89-14.13,31.92,3.09,49.86,34.81,84.81"/>
        <circle class="cls-1" cx="218.98" cy="53.35" r="2.35"/>
        <path class="cls-1" d="M106.76,128.71c.21,15.77,30.35,28.13,67.4,27.65"/>
        <path class="cls-2" d="M86.03,152.51c.23,17.88,38.06,31.86,84.57,31.25"/>
      </g>
      <g>
        <path class="cls-1" d="M310.22,169.93c-3.41-18.99,7.13-36.74,23.55-39.68"/>
        <path class="cls-1" d="M309.98,167.82c0,25.72,27.38,46.53,61.21,46.53"/>
        <path class="cls-1" d="M368.46,214.24c50.5.69,92.27-26.96,97.15-62.96,0-28.45-.43-51.83-.98-55.09-19.04,4.92-134.74,34.78-134.74,34.78"/>
        <path class="cls-1" d="M466.99,141.5s34.98-7.75,38.49-8.52c.72,74.71-60.13,135.38-135.44,135.38"/>
        <path class="cls-1" d="M274.91,233.75c0,19.14,44.23,34.62,98.88,34.62"/>
        <path class="cls-1" d="M274.95,234.75c0-9.56-8.82-16.33-11.63-24.1-4.87-13.42-4.66-26.59-2.49-39.05,4.97-28.53,27.88-43.95,41.31-56.51.36-.43.6-.73.6-.73l27.66-26.78c.88-.85,1.64-1.82,2.26-2.87l13.28-22.6s.05-.08.13-.22c6.14-13.83-7.74-19.49-19.21-20.34-1.01-.08-2.04,0-3.02.27-7.84,2.16-10.83,19.11-9.61,26.04.18,1.04.11,2.1.2,3.15.73,8.06-4.18,10.07-6.32,14.37-.23.47.71-.73.43-.28-5.26,8.49-.91,4.4-6.09,8.51-7.95,6.3-22.44,13.57-22.44,13.57l-1.11.79c.19-.58.37-1.16.37-1.16,0,0,4.41-13.8,6.23-19.52-15.56-15.72-11.71-62.56,24.98-74.01,40.99-9.87,57.13,13.44,62.78,30.89,14.13,31.92-3.09,49.86-34.81,84.81"/>
        <circle class="cls-1" cx="295.13" cy="54.95" r="2.35"/>
        <path class="cls-1" d="M407.35,130.31c-.21,15.77-30.35,28.13-67.4,27.65"/>
        <path class="cls-2" d="M428.07,154.11c-.23,17.88-38.06,31.86-84.57,31.25"/>
      </g>
    </g>
  </g>
</svg>